<?xml version="1.0" standalone="no"?>
<!DOCTYPE svg PUBLIC "-//W3C//DTD SVG 20010904//EN"
 "http://www.w3.org/TR/2001/REC-SVG-20010904/DTD/svg10.dtd">
<svg version="1.0" xmlns="http://www.w3.org/2000/svg"
 width="298.000000pt" height="355.000000pt" viewBox="0 0 298.000000 355.000000"
 preserveAspectRatio="xMidYMid meet">
<metadata>
Created by potrace 1.15, written by Peter Selinger 2001-2017
</metadata>
<g transform="translate(0.000000,355.000000) scale(0.100000,-0.100000)"
fill="#000000" stroke="none">
<path d="M1542 3288 c-5 -7 -49 -211 -96 -453 -192 -977 -198 -1007 -211 -993
-7 7 -138 218 -290 468 -153 250 -284 465 -291 478 -17 27 -50 29 -59 4 -6
-22 -6 -21 160 -1437 68 -583 127 -1088 131 -1122 12 -112 49 -110 93 3 84
215 244 353 464 398 96 20 138 20 235 0 220 -45 391 -198 470 -419 20 -55 44
-77 64 -57 8 8 53 358 125 970 182 1548 192 1638 186 1661 -15 58 -43 21 -270
-349 -410 -670 -376 -617 -384 -590 -5 14 -67 327 -139 695 -72 369 -136 688
-143 709 -13 43 -28 54 -45 34z m36 -275 c33 -151 242 -1242 242 -1259 0 -18
-226 -403 -254 -431 -9 -10 -39 32 -139 198 -74 124 -127 221 -127 236 0 14
45 258 101 542 55 284 109 563 120 621 11 58 22 113 25 123 9 30 22 18 32 -30z
m-614 -849 c181 -298 256 -430 256 -450 -1 -36 -84 -471 -92 -480 -6 -5 -242
175 -299 228 -16 15 -29 41 -33 64 -8 48 -126 1067 -126 1085 0 30 47 -42 294
-447z m1486 449 c0 -5 -29 -255 -65 -556 -45 -387 -68 -556 -79 -572 -14 -21
-265 -227 -302 -248 -9 -5 -16 -3 -18 5 -17 55 -87 455 -84 481 2 20 102 193
268 465 234 384 280 453 280 425z m-1134 -1026 c17 -28 68 -112 112 -186 46
-75 82 -146 82 -160 0 -23 -99 -203 -118 -215 -8 -5 -117 76 -169 127 -18 17
-33 38 -33 46 0 31 82 441 89 441 3 0 20 -24 37 -53z m574 -172 l43 -226 -24
-25 c-13 -13 -58 -52 -100 -84 l-78 -60 -19 27 c-36 52 -99 159 -106 181 -6
18 18 65 110 217 65 107 121 195 124 195 4 0 26 -101 50 -225z m-924 -142 c80
-64 137 -116 140 -129 5 -19 -32 -230 -42 -243 -8 -9 -193 62 -199 77 -12 31
-52 402 -43 402 5 0 69 -48 144 -107z m1334 80 c0 -16 -9 -104 -21 -198 -15
-126 -25 -174 -37 -186 -16 -16 -180 -75 -187 -68 -5 7 -45 211 -45 235 0 19
31 48 138 134 75 60 140 110 145 110 4 0 7 -12 7 -27z m-678 -278 l57 -95 -55
-45 c-31 -25 -60 -45 -66 -45 -8 0 -53 33 -112 81 -8 7 100 199 113 199 3 0
32 -43 63 -95z m-282 -101 c16 -18 -50 -128 -79 -132 -36 -6 -131 37 -131 59
0 15 20 119 35 187 5 21 10 19 86 -40 44 -34 84 -67 89 -74z m615 104 c13 -59
35 -171 35 -182 0 -15 -92 -56 -126 -56 -12 0 -31 11 -41 24 -21 27 -58 105
-52 110 63 51 164 126 170 126 5 0 11 -10 14 -22z m-995 -212 l75 -25 -3 -56
c-3 -73 -14 -93 -56 -100 -70 -14 -80 -6 -88 60 -4 33 -9 79 -12 103 -3 23 -2
42 2 42 4 0 41 -11 82 -24z m1283 -13 c-2 -21 -7 -67 -11 -103 l-7 -65 -53 0
c-28 1 -57 6 -63 12 -7 7 -17 41 -24 78 l-13 65 77 24 c102 32 100 33 94 -11z"/>
</g>
</svg>
