<svg xmlns="http://www.w3.org/2000/svg" width="30" height="21"><path d="M 3 4 C 3 3.448 3.448 3 4 3 L 26 3 C 26.552 3 27 3.448 27 4 L 27 5 C 27 5.552 26.552 6 26 6 L 4 6 C 3.448 6 3 5.552 3 5 Z" fill="hsl(0, 0%, 0%)"></path><path d="M 3 10 C 3 9.448 3.448 9 4 9 L 26 9 C 26.552 9 27 9.448 27 10 L 27 11 C 27 11.552 26.552 12 26 12 L 4 12 C 3.448 12 3 11.552 3 11 Z" fill="hsl(0, 0%, 0%)"></path><path d="M 3 16 C 3 15.448 3.448 15 4 15 L 26 15 C 26.552 15 27 15.448 27 16 L 27 17 C 27 17.552 26.552 18 26 18 L 4 18 C 3.448 18 3 17.552 3 17 Z" fill="hsl(0, 0%, 0%)"></path></svg>